<?xml version="1.0" encoding="utf-8"?>
<!-- Generator: Adobe Illustrator 21.0.0, SVG Export Plug-In . SVG Version: 6.00 Build 0)  -->
<svg version="1.1" id="Capa_1" xmlns="http://www.w3.org/2000/svg" xmlns:xlink="http://www.w3.org/1999/xlink" x="0px" y="0px"
	 viewBox="0 0 512 512" style="enable-background:new 0 0 512 512;" xml:space="preserve">
<style type="text/css">
	.st0{fill:#B9B9B9;stroke:#B9B9B9;stroke-width:3;stroke-miterlimit:10;}
</style>
<g>
	<g>
		<g>
			
				<rect x="127.4" y="264.2" transform="matrix(0.7071 -0.7071 0.7071 0.7071 -138.0309 211.3277)" class="st0" width="117.4" height="16.1"/>
			<circle class="st0" cx="227.5" cy="230.8" r="8"/>
			<circle class="st0" cx="144.5" cy="313.8" r="8"/>
		</g>
		<g>
			
				<rect x="240.1" y="222.4" transform="matrix(0.7071 -0.7071 0.7071 0.7071 -105.0998 249.0703)" class="st0" width="16.1" height="58"/>
			<circle class="st0" cx="227.5" cy="230.8" r="8"/>
			<circle class="st0" cx="268.1" cy="271.4" r="8"/>
		</g>
	</g>
	<g>
		<g>
			<rect x="56.2" y="138.7" class="st0" width="16.1" height="191.8"/>
			<rect x="442.2" y="139.6" class="st0" width="16.1" height="191.1"/>
			<rect x="51" y="131.3" class="st0" width="410.9" height="16.1"/>
			<rect x="100.4" y="358.7" class="st0" width="313.8" height="16.1"/>
			<rect x="51" y="58.1" class="st0" width="410.9" height="16.1"/>
			<path class="st0" d="M22.9,102.4c0-15.5,12.6-28.2,28.2-28.2c2.1,0,6.2-10.2,6.2-15.6c-2-0.3-4.1-0.4-6.2-0.4
				C26.7,58.2,6.9,78,6.9,102.4c0,0.3,0,0.5,0,0.8c5.3,0,10.7,0,16.1,0C22.9,102.9,22.9,102.6,22.9,102.4z"/>
			<path class="st0" d="M489.9,102.4c0-15.5-12.6-28.2-28.2-28.2c-2.1,0-6.2-10.2-6.2-15.6c2-0.3,4.1-0.4,6.2-0.4
				c24.4,0,44.2,19.8,44.2,44.2c0,0.3,0,0.5,0,0.8c-5.3,0-10.7,0-16.1,0C489.9,102.9,489.9,102.6,489.9,102.4z"/>
			<path class="st0" d="M22.9,103.2c0,15.5,12.6,28.2,28.2,28.2c2.1,0,6.2,10.2,6.2,15.6c-2,0.3-4.1,0.4-6.2,0.4
				c-24.4,0-44.2-19.8-44.2-44.2c0-0.3,0-0.5,0-0.8c5.3,0,10.7,0,16.1,0C22.9,102.6,22.9,102.9,22.9,103.2z"/>
			<path class="st0" d="M489.9,103.2c0,15.5-12.6,28.2-28.2,28.2c-2.1,0-6.2,10.2-6.2,15.6c2,0.3,4.1,0.4,6.2,0.4
				c24.4,0,44.2-19.8,44.2-44.2c0-0.3,0-0.5,0-0.8c-5.3,0-10.7,0-16.1,0C489.9,102.6,489.9,102.9,489.9,103.2z"/>
			<path class="st0" d="M72.3,330.6c0,15.5,12.6,28.2,28.2,28.2c2.1,0,6.2,10.2,6.2,15.6c-2,0.3-4.1,0.4-6.2,0.4
				c-24.4,0-44.2-19.8-44.2-44.2c0-0.3,0-0.5,0-0.8c5.3,0,10.7,0,16.1,0C72.3,330,72.3,330.3,72.3,330.6z"/>
			<path class="st0" d="M442.2,330.6c0,15.5-12.6,28.2-28.2,28.2c-2.1,0-6.2,10.2-6.2,15.6c2,0.3,4.1,0.4,6.2,0.4
				c24.4,0,44.2-19.8,44.2-44.2c0-0.3,0-0.5,0-0.8c-5.3,0-10.7,0-16.1,0C442.2,330,442.2,330.3,442.2,330.6z"/>
		</g>
		<circle class="st0" cx="326.5" cy="213.1" r="8"/>
		<g>
			<g>
				<rect x="219.5" y="366.8" class="st0" width="16.1" height="64.6"/>
			</g>
			<g>
				<rect x="268.1" y="366.8" class="st0" width="16.1" height="64.6"/>
			</g>
			<g>
				<circle class="st0" cx="124.5" cy="494.2" r="8"/>
			</g>
			<g>
				
					<rect x="115.9" y="450.9" transform="matrix(0.8381 -0.5455 0.5455 0.8381 -221.4632 171.7444)" class="st0" width="125.5" height="16.1"/>
			</g>
			<g>
				<circle class="st0" cx="379.2" cy="494.2" r="8"/>
			</g>
			<g>
				
					<rect x="317.1" y="396.2" transform="matrix(0.5455 -0.8381 0.8381 0.5455 -236.8735 481.0584)" class="st0" width="16.1" height="125.5"/>
			</g>
			<g>
				<rect x="248.6" y="16.9" class="st0" width="16.1" height="51.7"/>
			</g>
			<circle class="st0" cx="256.6" cy="16.9" r="8"/>
		</g>
	</g>
	
		<rect x="256.1" y="234.3" transform="matrix(0.7071 -0.7071 0.7071 0.7071 -84.2618 281.1992)" class="st0" width="82.4" height="16.1"/>
	<circle class="st0" cx="351.1" cy="188.5" r="8"/>
	<circle class="st0" cx="268.1" cy="271.4" r="8"/>
</g>
</svg>
