<?xml version="1.0" encoding="utf-8"?>
<!-- Generator: Adobe Illustrator 21.0.0, SVG Export Plug-In . SVG Version: 6.00 Build 0)  -->
<svg version="1.1" id="Capa_1" xmlns="http://www.w3.org/2000/svg" xmlns:xlink="http://www.w3.org/1999/xlink" x="0px" y="0px"
	 viewBox="0 0 512 512" style="enable-background:new 0 0 512 512;" xml:space="preserve">
<style type="text/css">
	.st0{fill:#B9B9B9;stroke:#B9B9B9;stroke-miterlimit:10;}
</style>
<g>
	<path class="st0" d="M256,129.6c-5.4,0-9.7,4.4-9.7,9.7s4.4,9.7,9.7,9.7c5.3,0,9.7-4.4,9.7-9.7S261.4,129.6,256,129.6z"/>
	<path class="st0" d="M94.5,304.6c5.4,0,9.7-4.4,9.7-9.7s-4.4-9.7-9.7-9.7c-5.4,0-9.7,4.4-9.7,9.7S89.2,304.6,94.5,304.6z"/>
	<path class="st0" d="M333.8,32.3c-87.6,0-159.4,60.4-165,136.4C85.4,172.9,7,233,7,314.4c0,34,13.4,66.9,37.9,93
		c4.8,20-1,41.1-15.6,55.7c-2.8,2.8-3.6,7-2.1,10.6s5,6,9,6c27.7,0,54.5-10.9,74.3-30c19.3,6.6,44.6,10.6,67.7,10.6
		c87.6,0,159.4-60.4,165-136.4c20.4-0.9,41.5-4.7,58.3-10.4c19.9,19.2,46.6,30,74.3,30c3.9,0,7.5-2.4,9-6s0.7-7.8-2.1-10.6
		c-14.6-14.6-20.5-35.8-15.6-55.7c24.5-26.1,37.9-59,37.9-93C505,93.7,420.5,32.3,333.8,32.3z M178.2,440.8
		c-23,0-49.1-4.5-66.6-11.5c-3.8-1.5-8-0.5-10.8,2.5c-11.7,12.8-27,21.8-43.7,25.9c9.2-17.6,11.5-38.3,5.9-57.9
		c-0.4-1.5-1.3-3-2.4-4.1c-22.1-22.7-34.2-51.6-34.2-81.3c0-68.5,69.5-126.4,151.7-126.4c77.7,0,145.9,54,145.9,126.4
		C324.1,384.1,258.6,440.8,178.2,440.8z M451.3,259.5c-1.1,1.2-1.9,2.6-2.4,4.1c-5.6,19.6-3.2,40.3,5.9,57.9
		c-16.6-4.1-31.9-13.1-43.7-25.9c-2.7-3-7-4-10.8-2.5c-15.2,6-36.8,10.2-57.3,11.2c-2.8-36.8-21.2-71.4-52.6-97h126.9
		c5.4,0,9.7-4.4,9.7-9.7s-4.4-9.7-9.7-9.7H260.7c-22.1-11.2-46.9-17.8-72.4-19.2c5.6-65.3,68.7-117,145.5-117
		c82.2,0,151.7,57.9,151.7,126.4C485.5,207.9,473.4,236.8,451.3,259.5z"/>
	<path class="st0" d="M256,285.2H133.4c-5.4,0-9.7,4.4-9.7,9.7c0,5.4,4.4,9.7,9.7,9.7H256c5.4,0,9.7-4.4,9.7-9.7
		C265.7,289.5,261.4,285.2,256,285.2z"/>
	<path class="st0" d="M256,343.5H94.5c-5.4,0-9.7,4.4-9.7,9.7c0,5.4,4.4,9.7,9.7,9.7H256c5.4,0,9.7-4.4,9.7-9.7
		S261.4,343.5,256,343.5z"/>
	<path class="st0" d="M417.5,129.6H294.9c-5.4,0-9.7,4.4-9.7,9.7s4.4,9.7,9.7,9.7h122.6c5.4,0,9.7-4.4,9.7-9.7
		S422.8,129.6,417.5,129.6z"/>
</g>
</svg>
