<?xml version="1.0" encoding="utf-8"?>
<!-- Generator: Adobe Illustrator 21.0.0, SVG Export Plug-In . SVG Version: 6.00 Build 0)  -->
<svg version="1.1" id="Capa_1" xmlns="http://www.w3.org/2000/svg" xmlns:xlink="http://www.w3.org/1999/xlink" x="0px" y="0px"
	 viewBox="0 0 512 512" style="enable-background:new 0 0 512 512;" xml:space="preserve">
<style type="text/css">
	.st0{fill:#B9B9B9;stroke:#B9B9B9;stroke-width:3;stroke-miterlimit:10;}
</style>
<g>
	<g>
		<g>
			
				<rect x="174.8" y="157.5" transform="matrix(0.7071 -0.7071 0.7071 0.7071 -48.7816 213.0308)" class="st0" width="116" height="15.9"/>
			<circle class="st0" cx="273.8" cy="124.4" r="7.9"/>
			<circle class="st0" cx="191.8" cy="206.4" r="7.9"/>
		</g>
		<g>
			
				<rect x="271.2" y="178.6" transform="matrix(0.7071 -0.7071 0.7071 0.7071 -44.0823 266.7258)" class="st0" width="57.4" height="15.9"/>
			<circle class="st0" cx="320.2" cy="166.3" r="7.9"/>
			<circle class="st0" cx="280.1" cy="206.4" r="7.9"/>
		</g>
	</g>
	<g>
		<g>
			<rect x="9.2" y="80.5" class="st0" width="15.9" height="272.5"/>
			<rect x="486.9" y="80.2" class="st0" width="15.9" height="285.6"/>
			<rect x="17.2" y="290.4" class="st0" width="481.8" height="15.9"/>
			<rect x="52.8" y="381.5" class="st0" width="405.8" height="15.9"/>
			<rect x="53" y="36.8" class="st0" width="406.3" height="15.9"/>
			<path class="st0" d="M25.1,80.5c0-15.4,12.5-27.8,27.8-27.8c2.1,0,6.2-10,6.2-15.5c-2-0.3-4.1-0.4-6.2-0.4
				c-24.2,0-43.7,19.6-43.7,43.7c0,0.3,0,0.5,0,0.7c5.3,0,10.6,0,15.9,0C25.1,81,25.1,80.8,25.1,80.5z"/>
			<path class="st0" d="M486.9,80.5c0-15.4-12.5-27.8-27.8-27.8c-2.1,0-6.2-10-6.2-15.5c2-0.3,4.1-0.4,6.2-0.4
				c24.2,0,43.7,19.6,43.7,43.7c0,0.3,0,0.5,0,0.7c-5.3,0-10.6,0-15.9,0C486.9,81,486.9,80.8,486.9,80.5z"/>
			<path class="st0" d="M25.1,353.7c0,15.4,12.5,27.8,27.8,27.8c2.1,0,6.2,10,6.2,15.5c-2,0.3-4.1,0.4-6.2,0.4
				c-24.2,0-43.7-19.6-43.7-43.7c0-0.3,0-0.5,0-0.7c5.3,0,10.6,0,15.9,0C25.1,353.2,25.1,353.4,25.1,353.7z"/>
			<path class="st0" d="M486.9,353.7c0,15.4-12.5,27.8-27.8,27.8c-2.1,0-6.2,10-6.2,15.5c2,0.3,4.1,0.4,6.2,0.4
				c24.2,0,43.7-19.6,43.7-43.7c0-0.3,0-0.5,0-0.7c-5.3,0-10.6,0-15.9,0C486.9,353.2,486.9,353.4,486.9,353.7z"/>
		</g>
		<circle class="st0" cx="256" cy="339.7" r="7.9"/>
		<g>
			<g>
				<path class="st0" d="M333.2,432.2c0,15.4,12.5,27.8,27.8,27.8c2.1,0,6.2,10,6.2,15.5c-2,0.3-4.1,0.4-6.2,0.4
					c-24.2,0-43.7-19.6-43.7-43.7c0-0.3,0-0.5,0-0.7c5.3,0,10.6,0,15.9,0C333.2,431.7,333.2,431.9,333.2,432.2z"/>
				<path class="st0" d="M178.8,432c0,15.4-12.5,27.8-27.8,27.8c-2.1,0-6.2,10-6.2,15.5c2,0.3,4.1,0.4,6.2,0.4
					c24.2,0,43.7-19.6,43.7-43.7c0-0.3,0-0.5,0-0.7c-5.3,0-10.6,0-15.9,0C178.8,431.5,178.8,431.8,178.8,432z"/>
				<rect x="178.8" y="386.8" class="st0" width="15.9" height="44.6"/>
				<rect x="317.3" y="386.8" class="st0" width="15.9" height="44.6"/>
			</g>
			<g>
				<rect x="64.3" y="460.3" class="st0" width="383.4" height="15.9"/>
				<circle class="st0" cx="64.3" cy="468.3" r="7.9"/>
				<circle class="st0" cx="447.7" cy="468.3" r="7.9"/>
			</g>
		</g>
	</g>
</g>
</svg>
